<svg id="Ebene_2" data-name="Ebene 2" xmlns="http://www.w3.org/2000/svg" viewBox="0 0 192 192"><path d="M71.71,21a3.93,3.93,0,1,0-5.46,5.64L72.06,32H32A12,12,0,0,0,20,44V86.5a4.12,4.12,0,0,0,3.61,4.15,4,4,0,0,0,4.39-4V46a6,6,0,0,1,6-6H72.06l-5.81,5.35A3.93,3.93,0,1,0,71.71,51L85.46,37.42a2,2,0,0,0,0-2.84Z" style="fill:#08b8d7"/><path d="M120.29,171a3.93,3.93,0,1,0,5.46-5.64L119.94,160H160a12,12,0,0,0,12-12V105.5a4.12,4.12,0,0,0-3.61-4.15,4,4,0,0,0-4.39,4V146a6,6,0,0,1-6,6H119.94l5.81-5.35a3.93,3.93,0,1,0-5.46-5.64l-13.75,13.57a2,2,0,0,0,0,2.84Z" style="fill:#08b8d7"/><path d="M134,28a30,30,0,1,1-30,30,30,30,0,0,1,30-30m0-8a38,38,0,1,0,38,38,38,38,0,0,0-38-38Z" style="fill:#47b16f"/><path d="M58,104a30,30,0,1,1-30,30,30,30,0,0,1,30-30m0-8a38,38,0,1,0,38,38A38,38,0,0,0,58,96Z" style="fill:#fdc30e"/></svg>