<svg id="Ebene_2" data-name="Ebene 2" xmlns="http://www.w3.org/2000/svg" viewBox="0 0 192 192"><path d="M124,53V40a8,8,0,0,0-8-8H28a8,8,0,0,0-8,8V152a8,8,0,0,0,8,8H164a8,8,0,0,0,8-8V61a8,8,0,0,0-8-8ZM34.5,40H116V53H34.5A6.5,6.5,0,0,1,28,46.5h0A6.5,6.5,0,0,1,34.5,40ZM28,150V63a2,2,0,0,1,2-2H162a2,2,0,0,1,2,2V79.5H124a8,8,0,0,0-8,8v38a8,8,0,0,0,8,8h40V150a2,2,0,0,1-2,2H30A2,2,0,0,1,28,150ZM164,87.5v38H126a2,2,0,0,1-2-2v-34a2,2,0,0,1,2-2Z" style="fill:#08b8d7"/><circle cx="144" cy="106.5" r="8" style="fill:#08b8d7"/></svg>