<svg id="Ebene_2" data-name="Ebene 2" xmlns="http://www.w3.org/2000/svg" viewBox="0 0 192 192"><path d="M182.83,153.17,163.2,133.54a34.74,34.74,0,1,0-5.6,5.72l19.57,19.57a4,4,0,0,0,5.66-5.66ZM109,112.25A26.75,26.75,0,1,1,135.75,139,26.78,26.78,0,0,1,109,112.25Z" style="fill:#08b8d7"/><path d="M82.89,32.9,50.32,44.05a4,4,0,0,1-2.64,0l-29-10.32A8,8,0,0,0,8,41.25V140.9a7,7,0,0,0,4.72,6.62l33.63,11.57a8,8,0,0,0,5.29,0l32.5-11.58a4,4,0,0,1,2.71,0l29.81,10.83a4.16,4.16,0,0,0,5.26-2.12,4,4,0,0,0-2.32-5.32L90.82,140.43a2,2,0,0,1-1.32-1.88V43.41a1,1,0,0,1,1.33-.94l25.83,9.06A2,2,0,0,1,118,53.42V67.33a4.12,4.12,0,0,0,3.61,4.15,4,4,0,0,0,4.39-4V51.8a8,8,0,0,0-5.37-7.56L88.11,32.91A8,8,0,0,0,82.89,32.9ZM16,138.75V42.93A1,1,0,0,1,17.34,42l26.34,9.53A2,2,0,0,1,45,53.4v95.33a1,1,0,0,1-1.32.94l-26.33-9A2,2,0,0,1,16,138.75ZM54.34,51.53l25.83-9.06a1,1,0,0,1,1.33.94v95.1a2,2,0,0,1-1.33,1.89l-25.83,9.2a1,1,0,0,1-1.34-.94V53.42A2,2,0,0,1,54.34,51.53Z" style="fill:#08b8d7"/></svg>