<svg id="Ebene_2" data-name="Ebene 2" xmlns="http://www.w3.org/2000/svg" viewBox="0 0 192 192"><path d="M24.49,130a4,4,0,0,1-2.43-.83C21.47,128.71,7.5,117.69,7.5,93c0-21.45,14.12-35.3,14.73-35.88a4,4,0,0,1,5.55,5.75h0C27.66,63,15.5,75,15.5,93c0,20.55,11,29.48,11.46,29.85A4,4,0,0,1,24.49,130Z" style="fill:#f18da5"/><path d="M43.16,116.49a3.91,3.91,0,0,1-2.42-.82c-.37-.29-9.24-7.29-9.24-22.67a33.18,33.18,0,0,1,9.2-22.38,4,4,0,0,1,5.56,5.75c-.08.08-6.76,6.76-6.76,16.63,0,11.26,5.91,16.15,6.16,16.36a4,4,0,0,1,.64,5.6A4,4,0,0,1,43.16,116.49Z" style="fill:#f18da5"/><path d="M167.5,130a4,4,0,0,1-2.44-7.17c.45-.35,11.44-9.28,11.44-29.83,0-18-12.16-30-12.28-30.13a4,4,0,0,1,5.55-5.75c.61.58,14.73,14.43,14.73,35.88,0,24.69-14,35.71-14.56,36.17A4,4,0,0,1,167.5,130Z" style="fill:#f18da5"/><path d="M148.82,116.5a4,4,0,0,1-2.44-7.17c.21-.18,6.12-5.07,6.12-16.33a25.37,25.37,0,0,0-6.77-16.63,4,4,0,0,1,5.57-5.75A33.18,33.18,0,0,1,160.5,93c0,15.38-8.87,22.38-9.24,22.67A4,4,0,0,1,148.82,116.5Z" style="fill:#f18da5"/><line x1="125" y1="69" x2="130" y2="85.5" style="fill:none"/><path d="M56.5,74v.5c0-.17,0-.33,0-.5Z" style="fill:#08b8d7"/><path d="M96.25,152h-.5a8.25,8.25,0,0,1-7.93-6H79.67a16.24,16.24,0,0,0,16.08,14h.5a16.24,16.24,0,0,0,16.08-14h-8.15A8.25,8.25,0,0,1,96.25,152Z" style="fill:#08b8d7"/><path d="M145.16,128.5,136.67,120a4,4,0,0,1-1.17-2.82V95h0V74.5h0A35.5,35.5,0,0,0,100,39h0V36a4,4,0,0,0-8,0v3h0A35.5,35.5,0,0,0,56.51,74c0,.17,0,.33,0,.5h0v42.69A4,4,0,0,1,55.33,120l-8.49,8.49a8,8,0,0,0-2.34,5.66V138a8,8,0,0,0,8,8h87a8,8,0,0,0,8-8v-3.84A8,8,0,0,0,145.16,128.5ZM139.5,136a2,2,0,0,1-2,2h-83a2,2,0,0,1-2-2v-.6a3,3,0,0,1,.88-2.12l9.95-10a4,4,0,0,0,1.17-2.83v-46A27.5,27.5,0,0,1,92,47h8a27.5,27.5,0,0,1,27.5,27.5v46a4,4,0,0,0,1.17,2.83l10,10a3,3,0,0,1,.88,2.12Z" style="fill:#08b8d7"/></svg>