<svg id="Ebene_2" data-name="Ebene 2" xmlns="http://www.w3.org/2000/svg" viewBox="0 0 192 192"><path d="M115.45,129.65a26.74,26.74,0,1,0,20.3-44.15c-.77,0-1.54,0-2.29.1v44.05Z" style="fill:none"/><path d="M126.46,87.17a26.73,26.73,0,0,0-15.36,35.46h15.36Z" style="fill:none"/><path d="M182.83,153.17,163.2,133.54a34.74,34.74,0,0,0-27.45-56c-.77,0-1.53,0-2.29.08a34.37,34.37,0,0,0-7,1.19,34.75,34.75,0,1,0,31.14,60.49l19.57,19.57a4,4,0,0,0,5.66-5.66ZM135.75,139a26.75,26.75,0,0,1-2.29-53.4c.75-.06,1.52-.1,2.29-.1a26.75,26.75,0,0,1,0,53.5Z" style="fill:#08b8d7"/><path d="M133.46,40a8,8,0,0,0-8-8H91.22A23.89,23.89,0,0,0,70.77,43.53,23.6,23.6,0,0,0,50.32,32H16a8,8,0,0,0-8,8V140.4a8,8,0,0,0,8,8h34.3a20.25,20.25,0,0,1,17.46,9.89,3.48,3.48,0,0,0,6,0,20.22,20.22,0,0,1,11.6-9l0,0a19,19,0,0,1,2-.48l.21,0c.26,0,.59-.09,1-.13l.17,0a19.57,19.57,0,0,1,2.43-.14H102a3.53,3.53,0,0,0,3.52-3.53h0a3.53,3.53,0,0,0-3.52-3.52H91.17a27.39,27.39,0,0,0-10.82,2.22v0a27.11,27.11,0,0,0-6,3.58v0c-1.85,1.49-3.57,3.08-3.57,3.08a27.48,27.48,0,0,0-3.54-3.1v.05c-.53-.41-1.07-.8-1.63-1.16-.32-.22-.67-.42-1-.63l-1.05-.6c-.34-.19-.67-.39-1-.55L62.1,144l-.77-.38a27.44,27.44,0,0,0-11-2.3H17a2,2,0,0,1-2-2V41a2,2,0,0,1,2-2H50.3A16.92,16.92,0,0,1,67.2,55.9L67.28,131a3.53,3.53,0,0,0,4.15,3.47,3.67,3.67,0,0,0,2.89-3.67V55.88A16.9,16.9,0,0,1,91.2,39h33.26a2,2,0,0,1,2,2l0,23.91a3.57,3.57,0,0,0,2.78,3.52A3.5,3.5,0,0,0,133.49,65Z" style="fill:#08b8d7"/></svg>