<svg id="Ebene_2" data-name="Ebene 2" xmlns="http://www.w3.org/2000/svg" viewBox="0 0 192 192"><path d="M110.25,35.92h0a4,4,0,0,0-5.66,0l-11,11a1,1,0,0,1-1.42,0l-4.95-5a4,4,0,0,0-5.65,0h0a4,4,0,0,0,0,5.66l8.48,8.49a4,4,0,0,0,5.66,0l14.5-14.5A4,4,0,0,0,110.25,35.92Z" style="fill:#47b16f"/><polygon points="51 159.75 51 159.75 51 159.75 51 159.75" style="fill:#08b8d7"/><polygon points="43 159.75 43 159.75 43 159.75 43 159.75" style="fill:#08b8d7"/><path d="M149.5,160v-.25c0,.1,0,.19,0,.29Z" style="fill:#08b8d7"/><path d="M95.93,8A38,38,0,0,0,60.51,59.76a37.56,37.56,0,0,0,3.68,7.13,38,38,0,0,0,63.57-.15,37.33,37.33,0,0,0,3.65-7.15A38,38,0,0,0,95.93,8Zm23.8,56.23a30.09,30.09,0,1,1,4.08-7.2A30,30,0,0,1,119.73,64.23Z" style="fill:#47b16f"/><path d="M141.5,65l-.18-.13a4,4,0,0,0-5.7,1.16h0a4,4,0,0,0,1.08,5.36c3.45,2.5,4.8,4.84,4.8,6.39,0,2.16-2.62,5.85-9.88,9.38l-1,.49a64.53,64.53,0,0,1-11.73,3.88A100.2,100.2,0,0,1,96.25,94a100.2,100.2,0,0,1-22.61-2.5,64.53,64.53,0,0,1-11.73-3.88l-1-.49C53.63,83.6,51,79.91,51,77.75h0c0-1.53,1.32-3.83,4.66-6.29a3.77,3.77,0,0,0,1-5l-.23-.37A3.72,3.72,0,0,0,51,65l0,0c-5.06,3.71-8,8.08-8,12.77v82c0,4.69,2.94,9.06,8,12.77C60.4,179.41,77.14,184,96.25,184s35.86-4.59,45.25-11.47a22.42,22.42,0,0,0,6.17-6.48,12.29,12.29,0,0,0,1.82-6c0-.1,0-.19,0-.29v-82C149.5,73.06,146.57,68.68,141.5,65Zm0,82v12.78h0c0,2.26-2.86,6.2-10.91,9.87-8.91,4-21.43,6.38-34.34,6.38s-25.43-2.33-34.34-6.38C53.86,166,51,162,51,159.75h0V145c.45.33.91.65,1.39,1a48.1,48.1,0,0,0,8.49,4.37c9.41,3.81,21.79,6.13,35.37,6.13s26-2.32,35.37-6.13a48.1,48.1,0,0,0,8.49-4.37c.48-.32.94-.64,1.39-1Zm0-14.72h0c0,2.16-2.62,5.85-9.88,9.38l-1,.49A64.53,64.53,0,0,1,118.86,146a103.49,103.49,0,0,1-45.22,0,64.53,64.53,0,0,1-11.73-3.88l-1-.49c-7.25-3.53-9.88-7.22-9.88-9.38h0V118l1,.72a47.51,47.51,0,0,0,8.31,4.4c9.47,3.94,22.08,6.35,35.93,6.35s26.46-2.41,35.93-6.35a47.51,47.51,0,0,0,8.31-4.4l1-.72Zm0-39.78v12.78h0c0,2.1-2.48,5.66-9.32,9.1-.51.26-1,.51-1.59.77a62.46,62.46,0,0,1-10.71,3.63,102.9,102.9,0,0,1-47.26,0,62.46,62.46,0,0,1-10.71-3.63c-.55-.26-1.08-.51-1.59-.77-6.83-3.44-9.32-7-9.32-9.1h0V90.53c.45.33.91.65,1.39,1a48.1,48.1,0,0,0,8.49,4.37C70.29,99.68,82.67,102,96.25,102s26-2.32,35.37-6.13a48.1,48.1,0,0,0,8.49-4.37c.48-.32.94-.64,1.39-1Z" style="fill:#08b8d7"/></svg>