<svg id="Ebene_2" data-name="Ebene 2" xmlns="http://www.w3.org/2000/svg" viewBox="0 0 192 192"><polygon points="50.5 159.75 50.5 159.75 50.5 159.75 50.5 159.75" style="fill:#08b8d7"/><polygon points="42.5 159.75 42.5 159.75 42.5 159.75 42.5 159.75" style="fill:#08b8d7"/><path d="M149,160v-.25c0,.1,0,.19,0,.29Z" style="fill:#08b8d7"/><path d="M141,65l-.18-.13a4,4,0,0,0-5.7,1.16h0a4,4,0,0,0,1.08,5.36c3.45,2.5,4.8,4.84,4.8,6.39,0,2.16-2.62,5.85-9.88,9.38l-1,.49a64.53,64.53,0,0,1-11.73,3.88A100.2,100.2,0,0,1,95.75,94a100.2,100.2,0,0,1-22.61-2.5,64.53,64.53,0,0,1-11.73-3.88l-1-.49c-7.25-3.53-9.88-7.22-9.88-9.38h0c0-1.53,1.32-3.83,4.66-6.29a3.77,3.77,0,0,0,1-5l-.23-.37A3.72,3.72,0,0,0,50.53,65l0,0c-5.06,3.71-8,8.08-8,12.77v82c0,4.69,2.94,9.06,8,12.77C59.9,179.41,76.64,184,95.75,184s35.86-4.59,45.25-11.47a22.42,22.42,0,0,0,6.17-6.48,12.29,12.29,0,0,0,1.82-6c0-.1,0-.19,0-.29v-82C149,73.06,146.07,68.68,141,65Zm0,82v12.78h0c0,2.26-2.86,6.2-10.91,9.87-8.91,4-21.43,6.38-34.34,6.38s-25.43-2.33-34.34-6.38c-8-3.67-10.91-7.61-10.91-9.87h0V145c.45.33.91.65,1.39,1a48.1,48.1,0,0,0,8.49,4.37c9.41,3.81,21.79,6.13,35.37,6.13s26-2.32,35.37-6.13a48.1,48.1,0,0,0,8.49-4.37c.48-.32.94-.64,1.39-1Zm0-14.72h0c0,2.16-2.62,5.85-9.88,9.38l-1,.49A64.53,64.53,0,0,1,118.36,146a103.49,103.49,0,0,1-45.22,0,64.53,64.53,0,0,1-11.73-3.88l-1-.49c-7.25-3.53-9.88-7.22-9.88-9.38h0V118l1,.72a47.51,47.51,0,0,0,8.31,4.4c9.47,3.94,22.08,6.35,35.93,6.35s26.46-2.41,35.93-6.35a47.51,47.51,0,0,0,8.31-4.4l1-.72Zm0-39.78v12.78h0c0,2.1-2.48,5.66-9.32,9.1-.51.26-1,.51-1.59.77a62.46,62.46,0,0,1-10.71,3.63,102.9,102.9,0,0,1-47.26,0,62.46,62.46,0,0,1-10.71-3.63c-.55-.26-1.08-.51-1.59-.77-6.83-3.44-9.32-7-9.32-9.1h0V90.53c.45.33.91.65,1.39,1a48.1,48.1,0,0,0,8.49,4.37C69.79,99.68,82.17,102,95.75,102s26-2.32,35.37-6.13a48.1,48.1,0,0,0,8.49-4.37c.48-.32.94-.64,1.39-1Z" style="fill:#08b8d7"/><path d="M63.5,27.59A4.12,4.12,0,0,0,69,27.2l4.47-4.47V74.27a4.15,4.15,0,0,0,3.78,4.22,4,4,0,0,0,4.22-4V22.24h0L86.19,27a4,4,0,0,0,5.66,0h0a4,4,0,0,0,0-5.66L79.12,8.59a2,2,0,0,0-2.83,0L63.21,21.67A4,4,0,0,0,63.5,27.59Z" style="fill:#47b16f"/><path d="M127,62.41a4.12,4.12,0,0,0-5.49.39l-4.47,4.47v-51A4.15,4.15,0,0,0,113.29,12a4,4,0,0,0-4.21,4V67.76h0L104.35,63a4,4,0,0,0-5.66,0h0a4,4,0,0,0,0,5.66l12.73,12.72a2,2,0,0,0,2.83,0l13.08-13.08A4,4,0,0,0,127,62.41Z" style="fill:#f18da5"/></svg>