<svg id="Ebene_2" data-name="Ebene 2" xmlns="http://www.w3.org/2000/svg" viewBox="0 0 192 192"><path d="M176,72.5H160V40a8,8,0,0,0-8-8H16a8,8,0,0,0-8,8v93a8,8,0,0,0,8,8H69l-2.29,11H58a4,4,0,0,0,0,8H176a8,8,0,0,0,8-8V80.5A8,8,0,0,0,176,72.5Zm-2,8a2,2,0,0,1,2,2V92H133.5V82.5a2,2,0,0,1,2-2Zm-80-8V63a2,2,0,0,1,2-2h54a2,2,0,0,1,2,2v9.5ZM86,152H74.67L77,141h9Zm0-19H18a2,2,0,0,1-2-2v-9.5H86Zm0-72v52.5H16V42a2,2,0,0,1,2-2H150a2,2,0,0,1,2,2V53H94A8,8,0,0,0,86,61Zm39.5,91H96a2,2,0,0,1-2-2V80.5h31.5Zm48.5,0H135.5a2,2,0,0,1-2-2V100H176v50A2,2,0,0,1,174,152Z" style="fill:#08b8d7"/></svg>