<?xml version="1.0" encoding="utf-8"?>
<!-- Generator: Adobe Illustrator 22.0.1, SVG Export Plug-In . SVG Version: 6.00 Build 0)  -->
<svg version="1.1" id="Layer_1" xmlns="http://www.w3.org/2000/svg" xmlns:xlink="http://www.w3.org/1999/xlink" x="0px" y="0px"
	 viewBox="0 0 150 48.2" style="enable-background:new 0 0 150 48.2;" xml:space="preserve">
<style type="text/css">
	.st0{fill:url(#SVGID_1_);}
	.st1{fill:url(#SVGID_2_);stroke:url(#SVGID_3_);stroke-width:1.1532;stroke-linecap:round;stroke-linejoin:round;}
</style>
<linearGradient id="SVGID_1_" gradientUnits="userSpaceOnUse" x1="0" y1="24.0874" x2="150" y2="24.0874">
	<stop  offset="0" style="stop-color:#A901FF"/>
	<stop  offset="1" style="stop-color:#6AABDA"/>
</linearGradient>
<path class="st0" d="M51.6,39.7c-2.9-1.6-5.1-3.8-6.7-6.6c-1.6-2.8-2.4-6-2.4-9.4c0-3.5,0.8-6.6,2.4-9.4c1.6-2.8,3.9-5,6.7-6.6
	c1.6-0.9,3.3-1.5,5.2-1.9L58.2,7c-2,0.3-3.9,1-5.6,1.9c-2.6,1.5-4.6,3.5-6.1,6c-1.5,2.6-2.2,5.4-2.2,8.6c0,3.2,0.7,6,2.2,8.6
	c1.5,2.6,3.5,4.6,6.1,6c2,1.1,4.2,1.8,6.6,2.1c0,0,0,0,0,0l-1.4,1.4c0,0,0,0,0,0C55.5,41.4,53.5,40.7,51.6,39.7z M105,39.7
	c2.9-1.6,5.1-3.8,6.7-6.6c1.6-2.8,2.4-6,2.4-9.4c0-3.5-0.8-6.6-2.4-9.4c-1.6-2.8-3.9-5-6.7-6.6c-1.6-0.9-3.3-1.5-5.2-1.9L98.4,7
	c2,0.3,3.9,1,5.6,1.9c2.6,1.5,4.6,3.5,6.1,6c1.5,2.6,2.2,5.4,2.2,8.6c0,3.2-0.7,6-2.2,8.6c-1.5,2.6-3.5,4.6-6.1,6
	c-2,1.1-4.2,1.8-6.6,2.1c0,0,0,0,0,0l1.4,1.4c0,0,0,0,0,0C101.1,41.4,103.1,40.7,105,39.7z M102.3,1.3L101.1,0L78.2,22.8L55.4,0
	l-1.2,1.3L77,24.1L54.2,46.9l1.2,1.3l22.8-22.8l22.8,22.8l1.2-1.3L79.5,24.1L102.3,1.3z M150,7.3v36.5h-1.5l-25.9-33.2v33.2h-1.8
	V7.3h1.5l25.9,33.2V7.3H150z M70,48.1h1v-6.8h-1V48.1z M77.9,41.3v5.1l-4.1-5.1H73v6.8h1V43l4.1,5.1h0.8v-6.8H77.9z M83.9,48.2
	c0.5,0,1-0.1,1.5-0.3c0.4-0.2,0.8-0.4,1.1-0.8l-0.6-0.6c-0.5,0.5-1.2,0.8-1.9,0.8c-0.5,0-1-0.1-1.4-0.3c-0.4-0.2-0.7-0.5-1-0.9
	c-0.2-0.4-0.3-0.8-0.3-1.3c0-0.5,0.1-0.9,0.3-1.3c0.2-0.4,0.5-0.7,1-0.9c0.4-0.2,0.9-0.3,1.4-0.3c0.8,0,1.4,0.3,1.9,0.8l0.6-0.6
	c-0.3-0.3-0.7-0.6-1.1-0.8c-0.4-0.2-0.9-0.3-1.5-0.3c-0.7,0-1.3,0.2-1.8,0.5c-0.5,0.3-1,0.7-1.3,1.2c-0.3,0.5-0.5,1.1-0.5,1.8
	c0,0.7,0.2,1.3,0.5,1.8c0.3,0.5,0.7,0.9,1.3,1.2C82.6,48,83.3,48.2,83.9,48.2z M34.7,43.7l-0.1-32.9l-16,27.8h-0.9L1.7,11v32.8H0
	V7.3h1.5l16.8,29.2L34.9,7.3h1.5l0.1,36.5H34.7z"/>
<linearGradient id="SVGID_2_" gradientUnits="userSpaceOnUse" x1="-306.9781" y1="-365.899" x2="-275.7781" y2="-365.899">
	<stop  offset="0" style="stop-color:#A901FF"/>
	<stop  offset="1" style="stop-color:#6AABDA"/>
</linearGradient>
<linearGradient id="SVGID_3_" gradientUnits="userSpaceOnUse" x1="-107.2179" y1="-59.935" x2="-57.8168" y2="-59.935" gradientTransform="matrix(0.7061 -0.7081 -0.7081 -0.7061 -275.6403 -466.8779)">
	<stop  offset="0" style="stop-color:#A901FF"/>
	<stop  offset="1" style="stop-color:#6AABDA"/>
</linearGradient>
<path class="st1" d="M-287-351.8c6.9,7.8-4.5,19.6-4.5,19.6c-11.5-15.2-3.6-20-3.6-20 M-287.4-355.5c12.5-35.8-4.2-44.2-4.2-44.2
	s-17.1,10.9-3.5,44.2H-287.4z M-291.3-347.5v-21.3 M-286.4-358.4l10.6,10.5l-0.9-14.2l-6.9-6.9L-286.4-358.4z M-299.2-368.7
	l-6.7,6.7l-1.1,14.5l10.8-10.8L-299.2-368.7z M-289.1-381.8c1.3-1.3,1.3-3.5,0-4.8c-1.3-1.3-3.5-1.3-4.8,0c-1.3,1.3-1.3,3.5,0,4.8
	C-292.6-380.5-290.5-380.5-289.1-381.8L-289.1-381.8z M-295.2-352.1c0,0-7.9,4.8,3.6,20c0,0,11.4-11.8,4.5-19.6"/>
</svg>
